<svg width="141" height="166" viewBox="0 0 141 166" fill="none" xmlns="http://www.w3.org/2000/svg">
<g clip-path="url(#clip0_1_8046)">
<path d="M124.623 141.156C124.423 141.156 124.223 141.156 124.022 141.156C41.7736 117.613 0.499015 2.80584 0.0982903 1.60367C-0.202253 1.00258 0.198471 0.301312 0.799558 0.100949C1.40064 -0.0994127 2.10191 0.201131 2.30227 0.802217C2.703 1.90421 43.5769 115.71 124.623 138.752C125.224 138.952 125.625 139.553 125.425 140.254C125.425 140.755 125.024 141.056 124.623 141.156Z" fill="#A49CBE"/>
<path d="M130.535 145.862C127.83 147.365 124.524 146.363 123.022 143.758C121.519 141.053 122.521 137.747 125.125 136.245C127.73 134.742 131.136 135.744 132.639 138.348C134.142 141.053 133.14 144.359 130.535 145.862Z" fill="#A49CBE"/>
<path d="M116.61 160.993C116.209 161.093 115.808 160.993 115.508 160.692C113.404 158.588 95.4715 139.754 101.382 131.339C107.193 123.124 132.438 124.126 133.54 124.126C134.242 124.126 134.743 124.727 134.743 125.428C134.743 126.13 134.141 126.631 133.44 126.631C126.528 126.33 107.593 126.931 103.386 132.842C99.3786 138.552 112.001 153.68 117.211 159.089C117.712 159.59 117.712 160.291 117.211 160.792C117.01 160.893 116.81 160.993 116.61 160.993Z" fill="#A49CBE"/>
<path d="M137.947 130.436C135.242 131.938 131.936 130.937 130.433 128.332C128.931 125.627 129.932 122.321 132.537 120.818C135.242 119.316 138.548 120.317 140.051 122.922C141.654 125.627 140.652 128.933 137.947 130.436Z" fill="#A49CBE"/>
<path d="M118.314 165.3C115.609 166.802 112.303 165.8 110.8 163.196C109.298 160.491 110.299 157.185 112.904 155.682C115.609 154.179 118.915 155.181 120.418 157.786C121.92 160.491 121.019 163.797 118.314 165.3Z" fill="#A49CBE"/>
<path d="M90.6609 145.063C90.2602 145.163 89.7593 144.963 89.4588 144.562C87.6555 142.158 72.3278 121.12 79.3405 113.606C86.253 106.293 111.098 110.601 112.2 110.701C112.901 110.801 113.302 111.402 113.202 112.103C113.101 112.805 112.5 113.205 111.799 113.105C104.987 111.903 86.1528 109.899 81.1437 115.209C76.335 120.318 86.9542 137.048 91.3622 143.059C91.7629 143.56 91.6627 144.362 91.1618 144.762C90.9615 144.963 90.7611 145.063 90.6609 145.063Z" fill="#A49CBE"/>
<path d="M115.704 117.612C112.899 118.714 109.693 117.312 108.591 114.507C107.489 111.702 108.892 108.496 111.697 107.394C114.502 106.292 117.708 107.695 118.81 110.5C120.012 113.305 118.61 116.51 115.704 117.612Z" fill="#A49CBE"/>
<path d="M91.563 149.573C88.758 150.675 85.5522 149.272 84.4502 146.467C83.3482 143.662 84.7507 140.456 87.5558 139.354C90.3609 138.252 93.5667 139.655 94.6686 142.46C95.8708 145.265 94.4683 148.471 91.563 149.573Z" fill="#A49CBE"/>
<path d="M67.9206 127.833C67.5199 127.933 67.019 127.732 66.7184 127.332C64.9152 124.927 49.5875 103.889 56.6001 96.3757C63.5126 89.0625 88.3575 93.3703 89.4595 93.4704C90.1608 93.5706 90.5615 94.1717 90.4613 94.873C90.3612 95.5742 89.7601 95.975 89.0588 95.8748C82.1463 94.7728 63.3123 92.8694 58.4034 98.179C53.5947 103.288 64.2139 120.018 68.6219 126.029C69.0226 126.53 68.9224 127.332 68.4215 127.732C68.2211 127.732 68.0208 127.833 67.9206 127.833Z" fill="#A49CBE"/>
<path d="M92.964 100.484C90.1589 101.586 86.9531 100.183 85.8511 97.3782C84.7492 94.5732 86.1517 91.3674 88.9568 90.2654C91.7618 89.1634 94.9676 90.5659 96.0696 93.371C97.2718 96.0759 95.8693 99.2817 92.964 100.484Z" fill="#A49CBE"/>
<path d="M68.8227 132.342C66.0176 133.444 62.8118 132.042 61.7099 129.237C60.6079 126.432 62.0104 123.226 64.8155 122.124C67.6205 121.022 70.8263 122.424 71.9283 125.229C73.1305 128.034 71.728 131.24 68.8227 132.342Z" fill="#A49CBE"/>
<path d="M43.8758 104.489C43.3749 104.589 42.874 104.389 42.5735 103.888C41.0707 101.283 28.3477 78.5424 36.1619 72.0306C43.8758 65.5188 68.0195 72.7319 69.1214 73.0324C69.7225 73.2328 70.1233 73.934 69.9229 74.5351C69.7225 75.1362 69.0213 75.5369 68.4202 75.3366C61.8082 73.333 43.2747 69.1254 37.7648 73.8339C32.4552 78.342 40.9706 96.1742 44.6773 102.686C44.9778 103.287 44.7774 103.988 44.2765 104.289C44.1764 104.389 44.0762 104.489 43.8758 104.489Z" fill="#A49CBE"/>
<path d="M71.9267 80.1463C69.0215 80.9477 65.9159 79.1445 65.2146 76.2392C64.4132 73.334 66.2164 70.2284 69.1217 69.5271C72.0269 68.7256 75.1325 70.5289 75.8338 73.4341C76.6352 76.4396 74.832 79.445 71.9267 80.1463Z" fill="#A49CBE"/>
<path d="M44.1774 109.097C41.2721 109.898 38.1665 108.095 37.4652 105.19C36.6638 102.285 38.467 99.1791 41.3723 98.4779C44.2775 97.6764 47.3832 99.4797 48.0844 102.385C48.8859 105.29 47.1828 108.296 44.1774 109.097Z" fill="#A49CBE"/>
<g clip-path="url(#clip1_1_8046)">
<path d="M66.8269 22.3118C66.8269 22.3118 65.9485 16.791 65.6557 14.4249C65.4117 12.0589 72.9267 8.9041 74.0979 8.21399C75.2691 7.4746 76.0011 8.95339 76.4403 9.98855C76.8794 11.0237 78.5386 16.3474 76.2451 18.2698C73.9515 20.1922 67.5101 23.5442 67.5101 23.5442L66.6805 23.0019L66.8269 22.3118Z" fill="#A49CBE"/>
<path d="M67.6066 22.9993C67.6554 22.9993 67.6554 22.9993 67.6066 22.9993C71.852 19.0558 74.9264 9.19717 75.024 8.80283C75.0728 8.65495 74.9752 8.50707 74.8288 8.45777C74.6824 8.40848 74.536 8.50707 74.4872 8.65495C74.4384 8.75353 71.3641 18.8093 67.265 22.6049C67.1674 22.7035 67.1674 22.8514 67.265 22.9993C67.3626 23.0485 67.509 23.0485 67.6066 22.9993Z" fill="#D6D0EA"/>
<path d="M67.7531 22.9036C67.8019 22.8543 67.8507 22.805 67.8507 22.7557C68.6803 20.6361 68.1923 17.0377 68.1923 16.8898C68.1923 16.742 68.0459 16.6434 67.8995 16.6434C67.7531 16.6434 67.6555 16.7912 67.6555 16.9391C67.6555 16.9884 68.1435 20.5375 67.3627 22.5585C67.3139 22.7064 67.3627 22.8543 67.5091 22.9036C67.6067 22.9529 67.6555 22.9529 67.7531 22.9036Z" fill="#D6D0EA"/>
<path d="M70.1941 21.5724C71.0237 21.0795 71.6093 20.5866 71.6581 20.5373C71.7557 20.4387 71.8045 20.2908 71.7069 20.1429C71.6093 20.0443 71.4629 19.995 71.3165 20.0936C71.3165 20.0936 69.6085 21.5231 67.9006 21.9668C67.7542 22.0161 67.6566 22.1639 67.7054 22.3118C67.7542 22.4597 67.9006 22.5583 68.047 22.509C68.8277 22.3611 69.5597 21.9668 70.1941 21.5724Z" fill="#D6D0EA"/>
<path d="M68.7292 24.6798C68.7292 24.6798 73.8043 22.7081 76.0002 22.018C78.1962 21.2786 82.832 28.0318 83.7592 29.0669C84.6864 30.1021 83.4664 31.0879 82.588 31.7287C81.7097 32.3696 76.9762 35.0314 74.6826 33.1582C72.3403 31.2851 67.7044 25.6657 67.7044 25.6657L68.046 24.7291L68.7292 24.6798Z" fill="#A49CBE"/>
<path d="M83.759 29.8562C83.8078 29.8069 83.8566 29.7576 83.9054 29.659C83.9054 29.5112 83.8078 29.3633 83.6614 29.3633C83.5638 29.3633 73.1697 28.4267 68.6314 25.1734C68.5338 25.0748 68.3386 25.1241 68.2898 25.2227C68.1922 25.3212 68.241 25.5184 68.3386 25.5677C72.9745 28.9196 83.1735 29.8069 83.6126 29.8562C83.6614 29.9055 83.7102 29.9055 83.759 29.8562Z" fill="#D6D0EA"/>
<path d="M74.3406 24.8265C74.4382 24.7772 74.487 24.6293 74.4382 24.5307C74.3894 24.3828 74.243 24.3335 74.0966 24.3828C74.0478 24.3828 70.7295 25.6152 68.6312 25.2701C68.4848 25.2701 68.3384 25.3687 68.3384 25.4673C68.3384 25.6152 68.436 25.763 68.5336 25.763C70.7783 26.1081 74.1454 24.8758 74.3406 24.8265Z" fill="#D6D0EA"/>
<path d="M71.8042 29.0676C71.853 29.0676 71.853 29.0183 71.853 29.0183C71.9506 28.9197 71.9018 28.7225 71.8042 28.6732C71.8042 28.6732 70.0474 27.293 69.2666 25.7156C69.2178 25.5677 69.0226 25.5184 68.925 25.617C68.7786 25.6663 68.7298 25.8635 68.8274 25.9621C69.657 27.6381 71.4626 29.0676 71.5114 29.1168C71.609 29.1168 71.7066 29.1168 71.8042 29.0676Z" fill="#D6D0EA"/>
<path d="M64.5829 25.0234C64.5829 25.0234 59.1663 26.3544 56.7751 26.798C54.4328 27.2416 51.0657 20.0448 50.2849 18.9604C49.5041 17.8266 50.9193 16.9887 51.9441 16.4957C52.9688 16.0028 58.1415 13.8832 60.1423 16.0028C62.143 18.1224 65.7053 24.2348 65.7053 24.2348L65.2173 25.122L64.5829 25.0234Z" fill="#A49CBE"/>
<path d="M65.1204 24.5285L65.1692 24.4792C65.2668 24.3806 65.2668 24.2327 65.1692 24.0848C61.0701 20.0921 51.1639 17.6274 50.7247 17.5289C50.5783 17.4796 50.432 17.5782 50.432 17.726C50.3832 17.8739 50.4808 18.0218 50.6271 18.0218C50.7247 18.0711 60.8261 20.5357 64.8276 24.4792C64.9252 24.5778 65.0228 24.5778 65.1204 24.5285Z" fill="#D6D0EA"/>
<path d="M65.0219 24.4343C65.0707 24.385 65.1195 24.3357 65.1195 24.2864C65.1683 24.1386 65.0707 23.9907 64.9731 23.9414C62.8259 23.2513 59.3124 23.9414 59.166 23.9907C59.0196 24.04 58.922 24.1386 58.9708 24.2864C59.0196 24.4343 59.1172 24.5329 59.2636 24.4836C59.3124 24.4836 62.7771 23.7935 64.8267 24.4343C64.8755 24.4836 64.9731 24.4836 65.0219 24.4343Z" fill="#D6D0EA"/>
<path d="M64.6312 24.0881C64.7288 24.0388 64.7776 23.8909 64.7288 23.7923C64.1432 21.9685 62.5816 20.3418 62.5328 20.2432C62.4352 20.1446 62.2888 20.1446 62.1424 20.2432C62.0448 20.3418 62.0448 20.4897 62.1424 20.6376C62.1424 20.6376 63.6552 22.2642 64.192 23.9402C64.2408 24.0881 64.3872 24.1374 64.5336 24.0881C64.5824 24.0881 64.6312 24.0881 64.6312 24.0881Z" fill="#D6D0EA"/>
<path d="M66.9724 27.2411C66.9724 27.2411 68.29 32.5648 68.7292 34.9308C69.1684 37.2969 61.9462 41.0432 60.8238 41.8319C59.7014 42.6699 58.8718 41.2897 58.3838 40.3038C57.8959 39.3179 55.8463 34.2407 57.9447 32.1704C60.043 30.1001 66.1916 26.1567 66.1916 26.1567L67.07 26.6003L66.9724 27.2411Z" fill="#A49CBE"/>
<path d="M60.3356 41.7816C60.3844 41.7323 60.4332 41.683 60.4332 41.6337C60.4332 41.5351 62.678 31.2821 66.4355 27.1415C66.5331 27.0429 66.5331 26.8457 66.4355 26.7472C66.3379 26.6486 66.1427 26.6486 66.0451 26.7472C62.19 30.9864 60.0428 41.0422 59.9452 41.4858C59.8964 41.6337 59.994 41.7816 60.1404 41.7816C60.1892 41.8309 60.2868 41.7816 60.3356 41.7816Z" fill="#D6D0EA"/>
<path d="M66.4846 33.0089C66.5822 32.9596 66.631 32.861 66.5822 32.7131C66.5822 32.6638 65.8014 29.164 66.387 27.0937C66.4358 26.9458 66.3382 26.7979 66.1918 26.7486C66.0454 26.6994 65.899 26.7979 65.8502 26.9458C65.2158 29.164 65.9966 32.6638 66.0454 32.8117C66.0942 32.9596 66.2406 33.0582 66.3382 33.0089C66.4358 33.0089 66.4846 33.0089 66.4846 33.0089Z" fill="#D6D0EA"/>
<path d="M62.6288 29.9037C62.6288 29.9037 62.6776 29.9037 62.6776 29.8544C62.6776 29.8544 64.2392 28.2771 65.8983 27.6855C66.0447 27.6362 66.0935 27.4884 66.0447 27.3405C65.9959 27.1926 65.8495 27.1433 65.7031 27.1926C63.9464 27.8334 62.336 29.4108 62.2872 29.5094C62.1896 29.608 62.1896 29.7558 62.2872 29.9037C62.3848 29.953 62.5312 29.953 62.6288 29.9037Z" fill="#D6D0EA"/>
<path d="M64.8747 25.8105C65.4603 26.7963 66.6803 27.0921 67.6562 26.5006C68.6322 25.9091 68.925 24.6767 68.3394 23.6909C67.7538 22.705 66.5339 22.4093 65.5579 23.0008C64.6307 23.5923 64.2891 24.8739 64.8747 25.8105Z" fill="#D6D0EA"/>
<path d="M65.5104 25.4653C65.9008 26.1062 66.6816 26.3033 67.2672 25.909C67.9016 25.5146 68.0968 24.7259 67.7064 24.1344C67.316 23.4936 66.5352 23.2964 65.9496 23.6908C65.3152 24.0358 65.1201 24.8245 65.5104 25.4653Z" fill="#EED7C5"/>
</g>
</g>
<defs>
<clipPath id="clip0_1_8046">
<rect width="140.6" height="165.7" fill="white" transform="scale(1.00181)"/>
</clipPath>
<clipPath id="clip1_1_8046">
<rect width="34" height="34" fill="white" transform="translate(50.0905 8.01449) scale(1.00181)"/>
</clipPath>
</defs>
</svg>
