<svg width="60" height="60" viewBox="0 0 60 60" fill="none" xmlns="http://www.w3.org/2000/svg">
<g clip-path="url(#clip0_1_8120)">
<path d="M29.4834 25.1811C29.4834 25.1811 27.9362 15.4561 27.4204 11.2882C26.9906 7.12032 40.2284 1.56316 42.2915 0.34753C44.3545 -0.95493 45.6439 1.64999 46.4175 3.47343C47.1912 5.29688 50.1138 14.6746 46.0737 18.061C42.0336 21.4474 30.6869 27.3519 30.6869 27.3519L29.2255 26.3967L29.4834 25.1811Z" fill="#D6D0EA"/>
<path d="M30.8596 26.3955C30.9455 26.3955 30.9455 26.3955 30.8596 26.3955C38.3381 19.449 43.7535 2.08286 43.9255 1.38821C44.0114 1.12772 43.8395 0.86723 43.5816 0.7804C43.3237 0.693569 43.0659 0.86723 42.9799 1.12772C42.8939 1.30138 37.4785 19.0148 30.2578 25.7008C30.0859 25.8745 30.0859 26.135 30.2578 26.3955C30.4298 26.4823 30.6876 26.4823 30.8596 26.3955Z" fill="#D6D0EA"/>
<path d="M31.1184 26.2228C31.2043 26.136 31.2903 26.0491 31.2903 25.9623C32.7516 22.2286 31.892 15.89 31.892 15.6295C31.892 15.369 31.6341 15.1953 31.3762 15.1953C31.1184 15.1953 30.9464 15.4558 30.9464 15.7163C30.9464 15.8031 31.806 22.0549 30.4307 25.615C30.3447 25.8755 30.4307 26.136 30.6886 26.2228C30.8605 26.3096 30.9464 26.3096 31.1184 26.2228Z" fill="#D6D0EA"/>
<path d="M35.4141 23.8793C36.8754 23.011 37.907 22.1427 37.9929 22.0558C38.1648 21.8822 38.2508 21.6217 38.0789 21.3612C37.907 21.1875 37.6491 21.1007 37.3912 21.2743C37.3912 21.2743 34.3826 23.7924 31.374 24.5739C31.1161 24.6607 30.9442 24.9212 31.0302 25.1817C31.1161 25.4422 31.374 25.6159 31.6319 25.5291C33.0073 25.2686 34.2967 24.5739 35.4141 23.8793Z" fill="#D6D0EA"/>
<path d="M32.8364 29.3508C32.8364 29.3508 41.7762 25.8775 45.6444 24.6619C49.5126 23.3594 57.6788 35.2552 59.3121 37.0787C60.9453 38.9021 58.7963 40.6387 57.249 41.7675C55.7017 42.8963 47.3636 47.5852 43.3235 44.2856C39.1974 40.9861 31.0312 31.0874 31.0312 31.0874L31.633 29.4376L32.8364 29.3508Z" fill="#D6D0EA"/>
<path d="M59.3117 38.4686C59.3977 38.3817 59.4837 38.2949 59.5696 38.1213C59.5696 37.8608 59.3977 37.6003 59.1398 37.6003C58.9679 37.6003 40.6584 35.9505 32.6642 30.2197C32.4923 30.046 32.1484 30.1328 32.0625 30.3065C31.8905 30.4802 31.9765 30.8275 32.1484 30.9143C40.3146 36.8188 58.2802 38.3817 59.0539 38.4686C59.1398 38.5554 59.2258 38.5554 59.3117 38.4686Z" fill="#D6D0EA"/>
<path d="M42.7215 29.6109C42.8934 29.5241 42.9794 29.2636 42.8934 29.0899C42.8075 28.8294 42.5496 28.7426 42.2917 28.8294C42.2057 28.8294 36.3605 31.0002 32.6642 30.3924C32.4063 30.3924 32.1484 30.5661 32.1484 30.7397C32.1484 31.0002 32.3204 31.2607 32.4923 31.2607C36.4464 31.8685 42.3777 29.6977 42.7215 29.6109Z" fill="#D6D0EA"/>
<path d="M38.251 37.0787C38.3369 37.0787 38.3369 36.9918 38.3369 36.9918C38.5088 36.8182 38.4229 36.4708 38.251 36.384C38.251 36.384 35.1564 33.9527 33.781 31.1742C33.6951 30.9137 33.3512 30.8268 33.1793 31.0005C32.9214 31.0873 32.8355 31.4347 33.0074 31.6083C34.4687 34.5606 37.6492 37.0787 37.7352 37.1655C37.9071 37.1655 38.079 37.1655 38.251 37.0787Z" fill="#D6D0EA"/>
<path d="M25.5291 29.9565C25.5291 29.9565 15.9875 32.3009 11.7755 33.0824C7.64941 33.8639 1.71818 21.1866 0.342818 19.2763C-1.03254 17.2792 1.4603 15.8031 3.26545 14.9348C5.07061 14.0665 14.1824 10.3328 17.7067 14.0665C21.2311 17.8002 27.5061 28.5672 27.5061 28.5672L26.6465 30.1302L25.5291 29.9565Z" fill="#D6D0EA"/>
<path d="M26.4744 29.0869L26.5604 29.0001C26.7323 28.8264 26.7323 28.5659 26.5604 28.3054C19.3397 21.2722 1.88988 16.9306 1.11624 16.757C0.858365 16.6701 0.600486 16.8438 0.600486 17.1043C0.514526 17.3648 0.686446 17.6253 0.944325 17.6253C1.11625 17.7121 18.9099 22.0536 25.9587 29.0001C26.1306 29.1738 26.3025 29.1737 26.4744 29.0869Z" fill="#D6D0EA"/>
<path d="M26.3025 28.9132C26.3884 28.8264 26.4744 28.7396 26.4744 28.6527C26.5604 28.3923 26.3884 28.1318 26.2165 28.0449C22.4343 26.8293 16.2452 28.0449 15.9873 28.1318C15.7294 28.2186 15.5575 28.3923 15.6435 28.6527C15.7294 28.9132 15.9013 29.0869 16.1592 29.0001C16.2452 29.0001 22.3483 27.7844 25.9586 28.9132C26.0446 29.0001 26.2165 29.0001 26.3025 28.9132Z" fill="#D6D0EA"/>
<path d="M25.6145 28.3093C25.7864 28.2225 25.8723 27.962 25.7864 27.7883C24.7549 24.5756 22.0041 21.7102 21.9182 21.5365C21.7463 21.3628 21.4884 21.3628 21.2305 21.5365C21.0586 21.7102 21.0586 21.9707 21.2305 22.2311C21.2305 22.2311 23.8953 25.0966 24.8408 28.0488C24.9268 28.3093 25.1847 28.3961 25.4425 28.3093C25.5285 28.3093 25.6145 28.3093 25.6145 28.3093Z" fill="#D6D0EA"/>
<path d="M29.7396 33.8634C29.7396 33.8634 32.0605 43.2411 32.8341 47.409C33.6078 51.5769 20.8857 58.176 18.9086 59.5653C16.9315 61.0414 15.4702 58.6101 14.6106 56.8735C13.751 55.1369 10.1407 46.1934 13.837 42.5465C17.5333 38.8996 28.3642 31.9531 28.3642 31.9531L29.9115 32.7346L29.7396 33.8634Z" fill="#D6D0EA"/>
<path d="M18.0499 59.4808C18.1358 59.394 18.2218 59.3071 18.2218 59.2203C18.2218 59.0466 22.176 40.9859 28.7949 33.6921C28.9668 33.5184 28.9668 33.1711 28.7949 32.9974C28.6229 32.8238 28.2791 32.8238 28.1072 32.9974C21.3164 40.4649 17.5341 58.1783 17.3622 58.9598C17.2762 59.2203 17.4482 59.4808 17.706 59.4808C17.792 59.5676 17.9639 59.4808 18.0499 59.4808Z" fill="#D6D0EA"/>
<path d="M28.8812 44.0227C29.0531 43.9359 29.139 43.7622 29.0531 43.5018C29.0531 43.4149 27.6777 37.2499 28.7093 33.6031C28.7952 33.3426 28.6233 33.0821 28.3654 32.9952C28.1075 32.9084 27.8496 33.0821 27.7637 33.3426C26.6462 37.2499 28.0216 43.4149 28.1075 43.6754C28.1935 43.9359 28.4514 44.1096 28.6233 44.0227C28.7952 44.0227 28.8812 44.0227 28.8812 44.0227Z" fill="#D6D0EA"/>
<path d="M22.09 38.5504C22.09 38.5504 22.176 38.5504 22.176 38.4636C22.176 38.4636 24.9267 35.685 27.8493 34.6431C28.1072 34.5562 28.1932 34.2957 28.1072 34.0352C28.0213 33.7747 27.7634 33.6879 27.5055 33.7747C24.411 34.9035 21.5743 37.6821 21.4883 37.8558C21.3164 38.0294 21.3164 38.2899 21.4883 38.5504C21.6602 38.6373 21.9181 38.6373 22.09 38.5504Z" fill="#D6D0EA"/>
<path d="M26.0446 31.3433C27.0761 33.08 29.2251 33.6009 30.9443 32.559C32.6635 31.517 33.1793 29.3462 32.1477 27.6096C31.1162 25.873 28.9672 25.352 27.248 26.394C25.6148 27.436 25.0131 29.6936 26.0446 31.3433Z" fill="#D6D0EA"/>
<path d="M27.1626 30.7374C27.8503 31.8662 29.2257 32.2136 30.2572 31.5189C31.3747 30.8243 31.7185 29.435 31.0308 28.393C30.3432 27.2642 28.9678 26.9169 27.9363 27.6115C26.8188 28.2193 26.475 29.6086 27.1626 30.7374Z" fill="#EED7C5"/>
</g>
<defs>
<clipPath id="clip0_1_8120">
<rect width="60" height="60" fill="white"/>
</clipPath>
</defs>
</svg>
