<svg width="60" height="60" viewBox="0 0 60 60" fill="none" xmlns="http://www.w3.org/2000/svg">
<g clip-path="url(#clip0_1_8234)">
<path d="M30.5168 25.1811C30.5168 25.1811 32.0641 15.4561 32.5799 11.2882C33.0097 7.12032 19.7718 1.56316 17.7088 0.34753C15.6458 -0.95493 14.3564 1.64999 13.5827 3.47343C12.8091 5.29688 9.88644 14.6746 13.9266 18.061C17.9667 21.4474 29.3134 27.3519 29.3134 27.3519L30.7747 26.3967L30.5168 25.1811Z" fill="#D6D0EA"/>
<path d="M29.1407 26.3955C29.0547 26.3955 29.0547 26.3955 29.1407 26.3955C21.6622 19.449 16.2467 2.08286 16.0748 1.38821C15.9888 1.12772 16.1607 0.86723 16.4186 0.7804C16.6765 0.693569 16.9344 0.86723 17.0203 1.12772C17.1063 1.30138 22.5218 19.0148 29.7424 25.7008C29.9143 25.8745 29.9143 26.135 29.7424 26.3955C29.5705 26.4823 29.3126 26.4823 29.1407 26.3955Z" fill="#D6D0EA"/>
<path d="M28.8819 26.2228C28.7959 26.136 28.71 26.0491 28.71 25.9623C27.2487 22.2286 28.1083 15.89 28.1083 15.6295C28.1083 15.369 28.3661 15.1953 28.624 15.1953C28.8819 15.1953 29.0538 15.4558 29.0538 15.7163C29.0538 15.8031 28.1942 22.0549 29.5696 25.615C29.6555 25.8755 29.5696 26.136 29.3117 26.2228C29.1398 26.3096 29.0538 26.3096 28.8819 26.2228Z" fill="#D6D0EA"/>
<path d="M24.5861 23.8793C23.1248 23.011 22.0933 22.1427 22.0073 22.0558C21.8354 21.8822 21.7494 21.6217 21.9214 21.3612C22.0933 21.1875 22.3512 21.1007 22.609 21.2743C22.609 21.2743 25.6176 23.7924 28.6262 24.5739C28.8841 24.6607 29.056 24.9212 28.9701 25.1817C28.8841 25.4422 28.6262 25.6159 28.3684 25.5291C26.993 25.2686 25.7036 24.5739 24.5861 23.8793Z" fill="#D6D0EA"/>
<path d="M27.1636 29.3508C27.1636 29.3508 18.2238 25.8775 14.3556 24.6619C10.4874 23.3594 2.32119 35.2552 0.687948 37.0787C-0.94529 38.9021 1.20371 40.6387 2.75099 41.7675C4.29826 42.8963 12.6364 47.5852 16.6765 44.2856C20.8026 40.9861 28.9688 31.0874 28.9688 31.0874L28.367 29.4376L27.1636 29.3508Z" fill="#D6D0EA"/>
<path d="M0.688257 38.4686C0.602297 38.3817 0.516335 38.2949 0.430374 38.1213C0.430374 37.8608 0.602295 37.6003 0.860174 37.6003C1.03209 37.6003 19.3416 35.9505 27.3358 30.2197C27.5077 30.046 27.8516 30.1328 27.9375 30.3065C28.1095 30.4802 28.0235 30.8275 27.8516 30.9143C19.6854 36.8188 1.71978 38.3817 0.946138 38.4686C0.860178 38.5554 0.774216 38.5554 0.688257 38.4686Z" fill="#D6D0EA"/>
<path d="M17.2785 29.6109C17.1066 29.5241 17.0206 29.2636 17.1066 29.0899C17.1925 28.8294 17.4504 28.7426 17.7083 28.8294C17.7943 28.8294 23.6395 31.0002 27.3358 30.3924C27.5937 30.3924 27.8516 30.5661 27.8516 30.7397C27.8516 31.0002 27.6796 31.2607 27.5077 31.2607C23.5536 31.8685 17.6223 29.6977 17.2785 29.6109Z" fill="#D6D0EA"/>
<path d="M21.749 37.0787C21.6631 37.0787 21.6631 36.9918 21.6631 36.9918C21.4912 36.8182 21.5771 36.4708 21.749 36.384C21.749 36.384 24.8436 33.9527 26.219 31.1742C26.3049 30.9137 26.6488 30.8268 26.8207 31.0005C27.0786 31.0873 27.1645 31.4347 26.9926 31.6083C25.5313 34.5606 22.3508 37.0787 22.2648 37.1655C22.0929 37.1655 21.921 37.1655 21.749 37.0787Z" fill="#D6D0EA"/>
<path d="M34.4709 29.9565C34.4709 29.9565 44.0125 32.3009 48.2245 33.0824C52.3506 33.8639 58.2818 21.1866 59.6572 19.2763C61.0325 17.2792 58.5397 15.8031 56.7345 14.9348C54.9294 14.0665 45.8176 10.3328 42.2933 14.0665C38.7689 17.8002 32.4939 28.5672 32.4939 28.5672L33.3535 30.1302L34.4709 29.9565Z" fill="#D6D0EA"/>
<path d="M33.5256 29.0869L33.4396 29.0001C33.2677 28.8264 33.2677 28.5659 33.4396 28.3054C40.6603 21.2722 58.1101 16.9306 58.8838 16.757C59.1416 16.6701 59.3995 16.8438 59.3995 17.1043C59.4855 17.3648 59.3136 17.6253 59.0557 17.6253C58.8838 17.7121 41.0901 22.0536 34.0413 29.0001C33.8694 29.1738 33.6975 29.1737 33.5256 29.0869Z" fill="#D6D0EA"/>
<path d="M33.6975 28.9132C33.6116 28.8264 33.5256 28.7396 33.5256 28.6527C33.4396 28.3923 33.6116 28.1318 33.7835 28.0449C37.5657 26.8293 43.7548 28.0449 44.0127 28.1318C44.2706 28.2186 44.4425 28.3923 44.3565 28.6527C44.2706 28.9132 44.0987 29.0869 43.8408 29.0001C43.7548 29.0001 37.6517 27.7844 34.0414 28.9132C33.9554 29.0001 33.7835 29.0001 33.6975 28.9132Z" fill="#D6D0EA"/>
<path d="M34.3855 28.3093C34.2136 28.2225 34.1277 27.962 34.2136 27.7883C35.2451 24.5756 37.9959 21.7102 38.0818 21.5365C38.2537 21.3628 38.5116 21.3628 38.7695 21.5365C38.9414 21.7102 38.9414 21.9707 38.7695 22.2311C38.7695 22.2311 36.1047 25.0966 35.1592 28.0488C35.0732 28.3093 34.8153 28.3961 34.5575 28.3093C34.4715 28.3093 34.3855 28.3093 34.3855 28.3093Z" fill="#D6D0EA"/>
<path d="M30.2604 33.8634C30.2604 33.8634 27.9395 43.2411 27.1659 47.409C26.3922 51.5769 39.1143 58.176 41.0914 59.5653C43.0685 61.0414 44.5298 58.6101 45.3894 56.8735C46.249 55.1369 49.8593 46.1934 46.163 42.5465C42.4667 38.8996 31.6358 31.9531 31.6358 31.9531L30.0885 32.7346L30.2604 33.8634Z" fill="#D6D0EA"/>
<path d="M41.9501 59.4808C41.8642 59.394 41.7782 59.3071 41.7782 59.2203C41.7782 59.0466 37.824 40.9859 31.2051 33.6921C31.0332 33.5184 31.0332 33.1711 31.2051 32.9974C31.3771 32.8238 31.7209 32.8238 31.8928 32.9974C38.6836 40.4649 42.4659 58.1783 42.6378 58.9598C42.7238 59.2203 42.5518 59.4808 42.294 59.4808C42.208 59.5676 42.0361 59.4808 41.9501 59.4808Z" fill="#D6D0EA"/>
<path d="M31.1188 44.0227C30.9469 43.9359 30.861 43.7622 30.9469 43.5018C30.9469 43.4149 32.3223 37.2499 31.2907 33.6031C31.2048 33.3426 31.3767 33.0821 31.6346 32.9952C31.8925 32.9084 32.1504 33.0821 32.2363 33.3426C33.3538 37.2499 31.9784 43.4149 31.8925 43.6754C31.8065 43.9359 31.5486 44.1096 31.3767 44.0227C31.2048 44.0227 31.1188 44.0227 31.1188 44.0227Z" fill="#D6D0EA"/>
<path d="M37.91 38.5504C37.91 38.5504 37.824 38.5504 37.824 38.4636C37.824 38.4636 35.0733 35.685 32.1507 34.6431C31.8928 34.5562 31.8068 34.2957 31.8928 34.0352C31.9787 33.7747 32.2366 33.6879 32.4945 33.7747C35.589 34.9035 38.4257 37.6821 38.5117 37.8558C38.6836 38.0294 38.6836 38.2899 38.5117 38.5504C38.3398 38.6373 38.0819 38.6373 37.91 38.5504Z" fill="#D6D0EA"/>
<path d="M33.9554 31.3433C32.9239 33.08 30.7749 33.6009 29.0557 32.559C27.3365 31.517 26.8207 29.3462 27.8523 27.6096C28.8838 25.873 31.0328 25.352 32.752 26.394C34.3852 27.436 34.9869 29.6936 33.9554 31.3433Z" fill="#D6D0EA"/>
<path d="M32.8374 30.7374C32.1497 31.8662 30.7743 32.2136 29.7428 31.5189C28.6253 30.8243 28.2815 29.435 28.9692 28.393C29.6568 27.2642 31.0322 26.9169 32.0637 27.6115C33.1812 28.2193 33.525 29.6086 32.8374 30.7374Z" fill="#EED7C5"/>
</g>
<defs>
<clipPath id="clip0_1_8234">
<rect width="60" height="60" fill="white" transform="matrix(-1 0 0 1 60 0)"/>
</clipPath>
</defs>
</svg>
