<svg width="13" height="20" viewBox="0 0 13 20" fill="none" xmlns="http://www.w3.org/2000/svg">
<path d="M12.9145 15.4375C12.0893 13.9892 10.8008 12.8607 9.2563 12.2337C10.0244 11.6577 10.5917 10.8546 10.8779 9.93819C11.1642 9.0218 11.1549 8.03856 10.8513 7.12777C10.5477 6.21697 9.96521 5.42479 9.18636 4.86343C8.40752 4.30207 7.47179 4 6.51173 4C5.55167 4 4.61594 4.30207 3.8371 4.86343C3.05825 5.42479 2.47578 6.21697 2.17218 7.12777C1.86858 8.03856 1.85925 9.0218 2.14551 9.93819C2.43177 10.8546 2.99911 11.6577 3.76716 12.2337C2.22269 12.8607 0.934137 13.9892 0.108934 15.4375C0.0578014 15.5197 0.0237217 15.6114 0.00872104 15.7071C-0.00627962 15.8027 -0.00189514 15.9004 0.0216139 15.9943C0.045123 16.0882 0.0872767 16.1765 0.145569 16.2538C0.203861 16.3311 0.277102 16.3959 0.360937 16.4443C0.444773 16.4928 0.537491 16.5239 0.63358 16.5357C0.729669 16.5476 0.827168 16.5401 0.920279 16.5135C1.01339 16.487 1.10021 16.442 1.17559 16.3812C1.25096 16.3204 1.31335 16.2451 1.35904 16.1598C2.44964 14.2747 4.37566 13.1504 6.51173 13.1504C8.6478 13.1504 10.5738 14.2753 11.6644 16.1598C11.7634 16.319 11.9205 16.4335 12.1024 16.479C12.2843 16.5245 12.4767 16.4975 12.6391 16.4037C12.8014 16.3099 12.9209 16.1567 12.9723 15.9764C13.0237 15.7961 13.003 15.6028 12.9145 15.4375ZM3.38196 8.57609C3.38196 7.95708 3.56551 7.35197 3.90942 6.83728C4.25332 6.32259 4.74213 5.92144 5.31402 5.68456C5.88591 5.44767 6.5152 5.38569 7.12232 5.50645C7.72944 5.62722 8.28711 5.9253 8.72481 6.36301C9.16252 6.80071 9.4606 7.35839 9.58137 7.9655C9.70213 8.57262 9.64015 9.20191 9.40326 9.7738C9.16638 10.3457 8.76523 10.8345 8.25054 11.1784C7.73585 11.5223 7.13074 11.7059 6.51173 11.7059C5.68196 11.7049 4.88644 11.3749 4.2997 10.7881C3.71296 10.2014 3.38291 9.40587 3.38196 8.57609Z" fill="#A49CBE"/>
</svg>
