<svg width="141" height="166" viewBox="0 0 141 166" fill="none" xmlns="http://www.w3.org/2000/svg">
<g clip-path="url(#clip0_1_8160)">
<path d="M16.2313 141.156C16.4317 141.156 16.632 141.156 16.8324 141.156C99.0811 117.613 140.356 2.80584 140.756 1.60367C141.057 1.00258 140.656 0.301312 140.055 0.100949C139.454 -0.0994127 138.753 0.201131 138.552 0.802217C138.152 1.90421 97.2778 115.71 16.2313 138.752C15.6302 138.952 15.2295 139.553 15.4299 140.254C15.4299 140.755 15.8306 141.056 16.2313 141.156Z" fill="#A49CBE"/>
<path d="M10.3196 145.862C13.0245 147.365 16.3304 146.363 17.8332 143.758C19.3359 141.053 18.3341 137.747 15.7294 136.245C13.1247 134.742 9.7185 135.744 8.21579 138.348C6.71307 141.053 7.71487 144.359 10.3196 145.862Z" fill="#A49CBE"/>
<path d="M24.245 160.993C24.6457 161.093 25.0464 160.993 25.347 160.692C27.4508 158.588 45.3832 139.754 39.4725 131.339C33.662 123.124 8.41635 124.126 7.31436 124.126C6.6131 124.126 6.11219 124.727 6.11219 125.428C6.11219 126.13 6.71328 126.631 7.41455 126.631C14.327 126.33 33.2613 126.931 37.4689 132.842C41.4761 138.552 28.8533 153.68 23.6439 159.089C23.143 159.59 23.143 160.291 23.6439 160.792C23.8442 160.893 24.0446 160.993 24.245 160.993Z" fill="#A49CBE"/>
<path d="M2.90775 130.436C5.61264 131.938 8.91861 130.937 10.4213 128.332C11.924 125.627 10.9222 122.321 8.31752 120.818C5.61263 119.316 2.30666 120.317 0.803941 122.922C-0.798957 125.627 0.20286 128.933 2.90775 130.436Z" fill="#A49CBE"/>
<path d="M22.5409 165.3C25.2458 166.802 28.5518 165.8 30.0545 163.196C31.5572 160.491 30.5554 157.185 27.9507 155.682C25.2458 154.179 21.9398 155.181 20.4371 157.786C18.9344 160.491 19.836 163.797 22.5409 165.3Z" fill="#A49CBE"/>
<path d="M50.1938 145.063C50.5945 145.163 51.0954 144.963 51.3959 144.562C53.1992 142.158 68.5269 121.12 61.5142 113.606C54.6017 106.293 29.7568 110.601 28.6548 110.701C27.9536 110.801 27.5528 111.402 27.653 112.103C27.7532 112.805 28.3543 113.205 29.0556 113.105C35.8679 111.903 54.7019 109.899 59.711 115.209C64.5197 120.318 53.9005 137.048 49.4925 143.059C49.0918 143.56 49.192 144.362 49.6929 144.762C49.8932 144.963 50.0936 145.063 50.1938 145.063Z" fill="#A49CBE"/>
<path d="M25.1504 117.612C27.9554 118.714 31.1612 117.312 32.2632 114.507C33.3652 111.702 31.9627 108.496 29.1576 107.394C26.3525 106.292 23.1468 107.695 22.0448 110.5C20.8426 113.305 22.2451 116.51 25.1504 117.612Z" fill="#A49CBE"/>
<path d="M49.2917 149.573C52.0967 150.675 55.3025 149.272 56.4045 146.467C57.5065 143.662 56.104 140.456 53.2989 139.354C50.4938 138.252 47.288 139.655 46.1861 142.46C44.9839 145.265 46.3864 148.471 49.2917 149.573Z" fill="#A49CBE"/>
<path d="M72.9341 127.833C73.3348 127.933 73.8357 127.732 74.1363 127.332C75.9395 124.927 91.2672 103.889 84.2546 96.3757C77.3421 89.0625 52.4971 93.3703 51.3952 93.4704C50.6939 93.5706 50.2932 94.1717 50.3933 94.873C50.4935 95.5742 51.0946 95.975 51.7959 95.8748C58.7084 94.7728 77.5424 92.8694 82.4513 98.179C87.26 103.288 76.6408 120.018 72.2328 126.029C71.8321 126.53 71.9323 127.332 72.4332 127.732C72.6335 127.732 72.8339 127.833 72.9341 127.833Z" fill="#A49CBE"/>
<path d="M47.8907 100.484C50.6958 101.586 53.9016 100.183 55.0036 97.3782C56.1055 94.5732 54.703 91.3674 51.8979 90.2654C49.0929 89.1634 45.8871 90.5659 44.7851 93.371C43.5829 96.0759 44.9854 99.2817 47.8907 100.484Z" fill="#A49CBE"/>
<path d="M72.032 132.342C74.8371 133.444 78.0428 132.042 79.1448 129.237C80.2468 126.432 78.8443 123.226 76.0392 122.124C73.2342 121.022 70.0284 122.424 68.9264 125.229C67.7242 128.034 69.1267 131.24 72.032 132.342Z" fill="#A49CBE"/>
<path d="M96.9789 104.489C97.4798 104.589 97.9807 104.389 98.2812 103.888C99.784 101.283 112.507 78.5424 104.693 72.0306C96.9789 65.5188 72.8352 72.7319 71.7333 73.0324C71.1322 73.2328 70.7314 73.934 70.9318 74.5351C71.1322 75.1362 71.8334 75.5369 72.4345 75.3366C79.0465 73.333 97.58 69.1254 103.09 73.8339C108.4 78.342 99.8841 96.1742 96.1774 102.686C95.8769 103.287 96.0773 103.988 96.5782 104.289C96.6783 104.389 96.7785 104.489 96.9789 104.489Z" fill="#A49CBE"/>
<path d="M68.928 80.1463C71.8332 80.9477 74.9388 79.1445 75.6401 76.2392C76.4415 73.334 74.6383 70.2284 71.733 69.5271C68.8278 68.7256 65.7222 70.5289 65.0209 73.4341C64.2194 76.4396 66.0227 79.445 68.928 80.1463Z" fill="#A49CBE"/>
<path d="M96.6773 109.097C99.5826 109.898 102.688 108.095 103.389 105.19C104.191 102.285 102.388 99.1791 99.4824 98.4779C96.5772 97.6764 93.4715 99.4797 92.7703 102.385C91.9688 105.29 93.6719 108.296 96.6773 109.097Z" fill="#A49CBE"/>
<g clip-path="url(#clip1_1_8160)">
<path d="M74.0278 22.3118C74.0278 22.3118 74.9062 16.791 75.199 14.4249C75.443 12.0589 67.9279 8.9041 66.7568 8.21399C65.5856 7.4746 64.8536 8.95339 64.4144 9.98855C63.9752 11.0237 62.3161 16.3474 64.6096 18.2698C66.9032 20.1922 73.3446 23.5442 73.3446 23.5442L74.1742 23.0019L74.0278 22.3118Z" fill="#A49CBE"/>
<path d="M73.2481 22.9993C73.1993 22.9993 73.1993 22.9993 73.2481 22.9993C69.0026 19.0558 65.9283 9.19717 65.8307 8.80283C65.7819 8.65495 65.8795 8.50707 66.0259 8.45777C66.1723 8.40848 66.3187 8.50707 66.3675 8.65495C66.4163 8.75353 69.4906 18.8093 73.5897 22.6049C73.6873 22.7035 73.6873 22.8514 73.5897 22.9993C73.4921 23.0485 73.3457 23.0485 73.2481 22.9993Z" fill="#D6D0EA"/>
<path d="M73.1016 22.9036C73.0528 22.8543 73.004 22.805 73.004 22.7557C72.1744 20.6361 72.6624 17.0377 72.6624 16.8898C72.6624 16.742 72.8088 16.6434 72.9552 16.6434C73.1016 16.6434 73.1992 16.7912 73.1992 16.9391C73.1992 16.9884 72.7112 20.5375 73.492 22.5585C73.5408 22.7064 73.492 22.8543 73.3456 22.9036C73.248 22.9529 73.1992 22.9529 73.1016 22.9036Z" fill="#D6D0EA"/>
<path d="M70.6606 21.5724C69.831 21.0795 69.2454 20.5866 69.1966 20.5373C69.099 20.4387 69.0502 20.2908 69.1478 20.1429C69.2454 20.0443 69.3918 19.995 69.5382 20.0936C69.5382 20.0936 71.2462 21.5231 72.9541 21.9668C73.1005 22.0161 73.1981 22.1639 73.1493 22.3118C73.1005 22.4597 72.9541 22.5583 72.8077 22.509C72.027 22.3611 71.295 21.9668 70.6606 21.5724Z" fill="#D6D0EA"/>
<path d="M72.1255 24.6798C72.1255 24.6798 67.0504 22.7081 64.8545 22.018C62.6585 21.2786 58.0227 28.0318 57.0955 29.0669C56.1683 30.1021 57.3883 31.0879 58.2667 31.7287C59.145 32.3696 63.8785 35.0314 66.1721 33.1582C68.5144 31.2851 73.1503 25.6657 73.1503 25.6657L72.8087 24.7291L72.1255 24.6798Z" fill="#A49CBE"/>
<path d="M57.0957 29.8562C57.0469 29.8069 56.9981 29.7576 56.9493 29.659C56.9493 29.5112 57.0469 29.3633 57.1933 29.3633C57.2908 29.3633 67.685 28.4267 72.2233 25.1734C72.3209 25.0748 72.5161 25.1241 72.5649 25.2227C72.6625 25.3212 72.6137 25.5184 72.5161 25.5677C67.8802 28.9196 57.6812 29.8069 57.2421 29.8562C57.1933 29.9055 57.1445 29.9055 57.0957 29.8562Z" fill="#D6D0EA"/>
<path d="M66.5141 24.8265C66.4165 24.7772 66.3677 24.6293 66.4165 24.5307C66.4653 24.3828 66.6117 24.3335 66.7581 24.3828C66.8069 24.3828 70.1252 25.6152 72.2235 25.2701C72.3699 25.2701 72.5163 25.3687 72.5163 25.4673C72.5163 25.6152 72.4187 25.763 72.3211 25.763C70.0764 26.1081 66.7093 24.8758 66.5141 24.8265Z" fill="#D6D0EA"/>
<path d="M69.0505 29.0676C69.0017 29.0676 69.0017 29.0183 69.0017 29.0183C68.9041 28.9197 68.9529 28.7225 69.0505 28.6732C69.0505 28.6732 70.8073 27.293 71.5881 25.7156C71.6369 25.5677 71.8321 25.5184 71.9297 25.617C72.0761 25.6663 72.1249 25.8635 72.0273 25.9621C71.1977 27.6381 69.3921 29.0676 69.3433 29.1168C69.2457 29.1168 69.1481 29.1168 69.0505 29.0676Z" fill="#D6D0EA"/>
<path d="M76.2718 25.0234C76.2718 25.0234 81.6884 26.3544 84.0796 26.798C86.4219 27.2416 89.789 20.0448 90.5698 18.9604C91.3506 17.8266 89.9354 16.9887 88.9106 16.4957C87.8859 16.0028 82.7132 13.8832 80.7124 16.0028C78.7117 18.1224 75.1494 24.2348 75.1494 24.2348L75.6374 25.122L76.2718 25.0234Z" fill="#A49CBE"/>
<path d="M75.7343 24.5285L75.6855 24.4792C75.5879 24.3806 75.5879 24.2327 75.6855 24.0848C79.7846 20.0921 89.6908 17.6274 90.1299 17.5289C90.2763 17.4796 90.4227 17.5782 90.4227 17.726C90.4715 17.8739 90.3739 18.0218 90.2275 18.0218C90.1299 18.0711 80.0286 20.5357 76.0271 24.4792C75.9295 24.5778 75.8319 24.5778 75.7343 24.5285Z" fill="#D6D0EA"/>
<path d="M75.8328 24.4343C75.784 24.385 75.7352 24.3357 75.7352 24.2864C75.6864 24.1386 75.784 23.9907 75.8816 23.9414C78.0288 23.2513 81.5423 23.9414 81.6887 23.9907C81.8351 24.04 81.9327 24.1386 81.8839 24.2864C81.8351 24.4343 81.7375 24.5329 81.5911 24.4836C81.5423 24.4836 78.0776 23.7935 76.028 24.4343C75.9792 24.4836 75.8816 24.4836 75.8328 24.4343Z" fill="#D6D0EA"/>
<path d="M76.2235 24.0881C76.1259 24.0388 76.0771 23.8909 76.1259 23.7923C76.7115 21.9685 78.2731 20.3418 78.3219 20.2432C78.4195 20.1446 78.5659 20.1446 78.7123 20.2432C78.8099 20.3418 78.8099 20.4897 78.7123 20.6376C78.7123 20.6376 77.1995 22.2642 76.6627 23.9402C76.6139 24.0881 76.4675 24.1374 76.3211 24.0881C76.2723 24.0881 76.2235 24.0881 76.2235 24.0881Z" fill="#D6D0EA"/>
<path d="M73.8823 27.2411C73.8823 27.2411 72.5647 32.5648 72.1255 34.9308C71.6863 37.2969 78.9085 41.0432 80.0309 41.8319C81.1533 42.6699 81.9829 41.2897 82.4709 40.3038C82.9588 39.3179 85.0084 34.2407 82.91 32.1704C80.8117 30.1001 74.663 26.1567 74.663 26.1567L73.7847 26.6003L73.8823 27.2411Z" fill="#A49CBE"/>
<path d="M80.5191 41.7816C80.4703 41.7323 80.4215 41.683 80.4215 41.6337C80.4215 41.5351 78.1767 31.2821 74.4192 27.1415C74.3216 27.0429 74.3216 26.8457 74.4192 26.7472C74.5168 26.6486 74.712 26.6486 74.8096 26.7472C78.6647 30.9864 80.8119 41.0422 80.9095 41.4858C80.9583 41.6337 80.8607 41.7816 80.7143 41.7816C80.6655 41.8309 80.5679 41.7816 80.5191 41.7816Z" fill="#D6D0EA"/>
<path d="M74.3701 33.0089C74.2725 32.9596 74.2237 32.861 74.2725 32.7131C74.2725 32.6638 75.0533 29.164 74.4677 27.0937C74.4189 26.9458 74.5165 26.7979 74.6629 26.7486C74.8093 26.6994 74.9557 26.7979 75.0045 26.9458C75.6389 29.164 74.8581 32.6638 74.8093 32.8117C74.7605 32.9596 74.6141 33.0582 74.5165 33.0089C74.4189 33.0089 74.3701 33.0089 74.3701 33.0089Z" fill="#D6D0EA"/>
<path d="M78.2259 29.9037C78.2259 29.9037 78.1771 29.9037 78.1771 29.8544C78.1771 29.8544 76.6155 28.2771 74.9564 27.6855C74.81 27.6362 74.7612 27.4884 74.81 27.3405C74.8588 27.1926 75.0052 27.1433 75.1516 27.1926C76.9083 27.8334 78.5187 29.4108 78.5675 29.5094C78.6651 29.608 78.6651 29.7558 78.5675 29.9037C78.4699 29.953 78.3235 29.953 78.2259 29.9037Z" fill="#D6D0EA"/>
<path d="M75.98 25.8105C75.3944 26.7963 74.1744 27.0921 73.1985 26.5006C72.2225 25.9091 71.9297 24.6767 72.5153 23.6909C73.1009 22.705 74.3208 22.4093 75.2968 23.0008C76.224 23.5923 76.5656 24.8739 75.98 25.8105Z" fill="#D6D0EA"/>
<path d="M75.3443 25.4653C74.9539 26.1062 74.1731 26.3033 73.5875 25.909C72.9531 25.5146 72.7579 24.7259 73.1483 24.1344C73.5387 23.4936 74.3195 23.2964 74.9051 23.6908C75.5394 24.0358 75.7346 24.8245 75.3443 25.4653Z" fill="#EED7C5"/>
</g>
</g>
<defs>
<clipPath id="clip0_1_8160">
<rect width="140.6" height="165.7" fill="white" transform="matrix(-1.00181 0 0 1.00181 140.855 0)"/>
</clipPath>
<clipPath id="clip1_1_8160">
<rect width="34" height="34" fill="white" transform="matrix(-1.00181 0 0 1.00181 90.7642 8.01449)"/>
</clipPath>
</defs>
</svg>
